<svg xmlns="http://www.w3.org/2000/svg" version="1.1" xmlns:xlink="http://www.w3.org/1999/xlink" xmlns:svgjs="http://svgjs.dev/svgjs" width="1000" height="1000" viewBox="0 0 1000 1000"><g transform="matrix(1,0,0,1,-0.49999999999994316,-0.49999999999994316)"><svg viewBox="0 0 280 280" data-background-color="#111111" preserveAspectRatio="xMidYMid meet" height="1000" width="1000" xmlns="http://www.w3.org/2000/svg" xmlns:xlink="http://www.w3.org/1999/xlink"><g id="tight-bounds" transform="matrix(1,0,0,1,0.13999999999998636,0.13999999999998636)"><svg viewBox="0 0 279.72 279.72" height="279.72" width="279.72"><g><svg viewBox="0 0 279.72 279.72" height="279.72" width="279.72"><g><svg viewBox="0 0 279.72 279.72" height="279.72" width="279.72"><g id="textblocktransform"><svg viewBox="0 0 279.72 279.72" height="279.72" width="279.72" id="textblock"><g><svg viewBox="0 0 279.72 279.72" height="279.72" width="279.72"><g transform="matrix(1,0,0,1,57.446704652707865,57.446704652707865)"><svg viewBox="0 0 164.8265906945843 164.8265906945843" height="164.8265906945843" width="164.8265906945843"><g><circle r="82" cx="82.41329534729215" cy="82.41329534729215" fill="#111111" data-fill-palette-color="accent"></circle><svg xmlns="http://www.w3.org/2000/svg" xmlns:xlink="http://www.w3.org/1999/xlink" version="1.1" x="24.72398860418764" y="24.723988604187646" viewBox="16.763 7 66.237 85.93799999999999" enable-background="new 0 0 100 100" xml:space="preserve" height="115.378613486209" width="115.378613486209" class="icon-kg-0" data-fill-palette-color="quaternary" id="kg-0"><path fill="#f1d00a" d="M50.122 13.765c-3.093 0-5.605 2.498-5.605 5.59 0 3.09 2.512 5.592 5.605 5.592 3.083 0 5.585-2.502 5.585-5.592C55.707 16.263 53.205 13.765 50.122 13.765z" data-fill-palette-color="quaternary"></path><path fill="#f1d00a" d="M55.919 46.679l0.372-12.162 6.831 15.13c0.282 0.661 1.058 0.982 1.722 0.695 0.676-0.287 0.989-1.053 0.706-1.728 0 0-4.81-15.052-6.185-17.852-1.375-2.804-3.495-4.51-8.713-4.51H49.58c-5.217 0-7.342 1.705-8.717 4.51-1.366 2.8-6.176 17.852-6.176 17.852-0.283 0.675 0.024 1.44 0.695 1.728 0.67 0.287 1.445-0.034 1.712-0.695l6.841-15.13 0.372 12.162L43.23 77.258c-0.075 1.211 0.834 2.264 2.035 2.344 0.06 0.01 0.115 0.01 0.16 0.01 1.146 0 2.114-0.883 2.204-2.047l2.478-25.183 2.506 25.183c0.07 1.162 1.043 2.047 2.18 2.047 0.055 0 0.104 0 0.159-0.01 1.217-0.08 2.114-1.133 2.041-2.344L55.91 46.679H55.919z" data-fill-palette-color="quaternary"></path><path fill="#f1d00a" d="M18.763 37h-2c0 3 0.021 4.372 0.064 6.113l1.999-0.097C18.783 41.293 18.763 40 18.763 37z" data-fill-palette-color="quaternary"></path><path fill="#f1d00a" d="M81 37c0 3-0.02 4.34-0.062 6.063l1.998 0.003C82.98 41.325 83 40 83 37H81z" data-fill-palette-color="quaternary"></path><rect x="57" y="7" fill="#f1d00a" width="6" height="2" data-fill-palette-color="quaternary"></rect><rect x="67" y="7" fill="#f1d00a" width="6" height="2" data-fill-palette-color="quaternary"></rect><rect x="47" y="7" fill="#f1d00a" width="6" height="2" data-fill-palette-color="quaternary"></rect><rect x="37" y="7" fill="#f1d00a" width="6" height="2" data-fill-palette-color="quaternary"></rect><rect x="27" y="7" fill="#f1d00a" width="6" height="2" data-fill-palette-color="quaternary"></rect><rect x="17" y="17" fill="#f1d00a" width="2" height="6" data-fill-palette-color="quaternary"></rect><rect x="17" y="27" fill="#f1d00a" width="2" height="6" data-fill-palette-color="quaternary"></rect><rect x="81" y="17" fill="#f1d00a" width="2" height="6" data-fill-palette-color="quaternary"></rect><rect x="81" y="27" fill="#f1d00a" width="2" height="6" data-fill-palette-color="quaternary"></rect><polygon fill="#f1d00a" points="23,9 19,9 19,13 17,13 17,7 23,7 " data-fill-palette-color="quaternary"></polygon><polygon fill="#f1d00a" points="81,13 81,9 77,9 77,7 83,7 83,13 " data-fill-palette-color="quaternary"></polygon><g fill="#f1d00a" data-fill-palette-color="quaternary"><path fill="#f1d00a" d="M39.219 85.182c1.477 1.152 3.096 2.373 4.814 3.627l1.179-1.615c-1.7-1.241-3.302-2.448-4.762-3.588L39.219 85.182z" data-fill-palette-color="quaternary"></path><path fill="#f1d00a" d="M30.802 77.964c1.354 1.308 2.871 2.669 4.507 4.05l1.29-1.527c-1.603-1.354-3.086-2.687-4.408-3.961L30.802 77.964z" data-fill-palette-color="quaternary"></path><path fill="#f1d00a" d="M18.812 59.273c0.577 2.031 1.288 3.914 2.174 5.754l1.802-0.867c-0.835-1.735-1.506-3.512-2.052-5.434L18.812 59.273z" data-fill-palette-color="quaternary"></path><path fill="#f1d00a" d="M23.536 69.475c1.085 1.623 2.312 3.203 3.751 4.834l1.499-1.324c-1.379-1.562-2.553-3.074-3.588-4.621L23.536 69.475z" data-fill-palette-color="quaternary"></path><path fill="#f1d00a" d="M19.047 48.104l-1.995 0.137c0.153 2.23 0.372 4.208 0.668 6.045l1.975-0.319C19.407 52.191 19.196 50.273 19.047 48.104z" data-fill-palette-color="quaternary"></path><path fill="#f1d00a" d="M80.068 53.967l1.976 0.319c0.297-1.837 0.517-3.814 0.668-6.045l-1.995-0.137C80.568 50.273 80.355 52.191 80.068 53.967z" data-fill-palette-color="quaternary"></path><path fill="#f1d00a" d="M70.979 72.984l1.498 1.322c1.439-1.63 2.666-3.211 3.752-4.832l-1.662-1.113C73.529 69.909 72.357 71.422 70.979 72.984z" data-fill-palette-color="quaternary"></path><path fill="#f1d00a" d="M49.882 90.52c-0.207-0.146-0.916-0.789-1.12-0.934l-1.148 1.639c0.41 0.287 2.286 1.713 2.286 1.713s1.857-1.504 2.268-1.791l-1.165-1.561C50.798 89.729 50.089 90.374 49.882 90.52z" data-fill-palette-color="quaternary"></path><path fill="#f1d00a" d="M76.977 64.16l1.803 0.867c0.886-1.84 1.597-3.723 2.174-5.754l-1.924-0.547C78.482 60.648 77.812 62.425 76.977 64.16z" data-fill-palette-color="quaternary"></path><path fill="#f1d00a" d="M54.552 87.191l1.179 1.617c1.719-1.254 3.338-2.476 4.814-3.627l-1.23-1.576C57.854 84.744 56.252 85.951 54.552 87.191z" data-fill-palette-color="quaternary"></path><path fill="#f1d00a" d="M63.165 80.484l1.29 1.529c1.636-1.382 3.152-2.744 4.507-4.051l-1.389-1.439C66.251 77.8 64.768 79.133 63.165 80.484z" data-fill-palette-color="quaternary"></path></g></svg></g></svg></g><g><path d="M17.952 184.276c0.232-0.069 0.428-0.225 0.587-0.468 0.157-0.25 0.287-0.534 0.39-0.852 0.107-0.326 0.225-0.768 0.354-1.325v0c0.17-0.681 0.328-1.236 0.475-1.665 0.138-0.433 0.338-0.826 0.599-1.176 0.254-0.349 0.585-0.583 0.991-0.704v0c0.393-0.116 0.875-0.052 1.445 0.193 0.566 0.253 1.085 0.611 1.559 1.075 0.48 0.461 0.789 0.924 0.925 1.387v0c0.166 0.561 0.298 1.233 0.397 2.018 0.103 0.776 0.139 1.358 0.107 1.746v0l-2.775 0.821-0.447-1.509c0.55-0.485 0.949-0.964 1.195-1.437 0.252-0.474 0.32-0.908 0.204-1.301v0c-0.071-0.239-0.2-0.404-0.389-0.495-0.195-0.09-0.408-0.1-0.64-0.031v0c-0.258 0.076-0.469 0.24-0.633 0.492-0.17 0.254-0.307 0.55-0.41 0.889-0.105 0.333-0.224 0.782-0.358 1.347v0c-0.154 0.663-0.302 1.208-0.442 1.635-0.136 0.419-0.328 0.798-0.578 1.138-0.25 0.34-0.575 0.57-0.975 0.688v0c-0.393 0.116-0.876 0.038-1.447-0.234-0.578-0.271-1.108-0.654-1.591-1.149-0.488-0.487-0.803-0.972-0.946-1.456v0c-0.174-0.587-0.318-1.301-0.434-2.143-0.122-0.84-0.168-1.458-0.138-1.852v0l2.775-0.821 0.45 1.518c-0.551 0.507-0.942 1.022-1.173 1.546-0.231 0.524-0.283 0.999-0.157 1.424v0c0.084 0.284 0.231 0.485 0.442 0.606 0.206 0.128 0.419 0.16 0.638 0.095z" fill="#ffffff" data-fill-palette-color="primary"></path><path d="M30.471 195.147l-3.334 1.305-0.66-0.662 1.731-2.606-0.339-0.864-6.723 2.633 0.208 1.445-1.1-0.099-1.732-4.423 0.817-0.32 1.281 0.754 6.282-2.459-0.327-0.836-3.036-0.728 0.031-0.944 3.334-1.305 0.165 1.029 2.824 7.212z" fill="#ffffff" data-fill-palette-color="primary"></path><path d="M27.603 209.364l-1.105-0.001-2.283-4.575 0.785-0.391 1.338 0.966 1.111-1.254-1.613-3.23-1.353 0.112-0.078 1.966-1.105 0-1.842-3.691 0.785-0.391 1.61 0.808 7.915-0.626 1.748 2.08-5.962 6.82zM28.288 203.149l2.361-2.677-3.554 0.286z" fill="#ffffff" data-fill-palette-color="primary"></path><path d="M33.591 213.47l-2.243 1.377 0.451 1.391-1.1 0.096-2.421-3.946 0.748-0.458 1.385 0.522 1.117-0.686 2.693-5.639-0.124-0.953 0.969-0.311 2.352 3.834-0.748 0.459-0.941-0.358-1.597 3.394 3.402 0.279-0.132-1.93 1.101-0.096 2.157 3.515-0.748 0.459-1.684-0.623z" fill="#ffffff" data-fill-palette-color="primary"></path><path d="M47.829 222.993c0.32 0.399 0.642 0.903 0.967 1.512 0.326 0.6 0.533 1.068 0.622 1.402v0l-2.156 1.729-0.991-1.234c0.267-0.602 0.377-1.147 0.33-1.636-0.042-0.492-0.212-0.925-0.51-1.297v0c-0.252-0.315-0.587-0.516-1.003-0.605-0.42-0.094-0.875-0.07-1.364 0.073-0.489 0.142-0.959 0.395-1.41 0.757v0c-0.503 0.404-0.904 0.855-1.202 1.353-0.297 0.489-0.446 0.991-0.446 1.508 0.001 0.517 0.188 1.008 0.563 1.475v0c0.488 0.608 1.448 1.252 2.881 1.929v0l-0.355 1.009-2.804-0.659c-0.337-0.238-0.631-0.485-0.88-0.742-0.253-0.262-0.511-0.556-0.772-0.881v0c-0.606-0.755-0.975-1.554-1.107-2.395-0.132-0.842-0.041-1.652 0.273-2.431 0.316-0.788 0.841-1.476 1.575-2.065v0c0.75-0.602 1.638-0.918 2.665-0.949 1.023-0.036 2.001 0.152 2.937 0.565 0.945 0.414 1.673 0.941 2.187 1.582z" fill="#ffffff" data-fill-palette-color="primary"></path><path d="M55.316 231.198c0.695 0.712 1.155 1.485 1.378 2.319 0.233 0.835 0.228 1.657-0.014 2.468-0.242 0.82-0.698 1.556-1.366 2.209v0c-0.692 0.677-1.548 1.076-2.567 1.197-1.019 0.131-2.021 0.029-3.006-0.305-0.985-0.325-1.767-0.783-2.344-1.375v0c-0.691-0.707-1.15-1.475-1.379-2.305-0.228-0.83-0.221-1.655 0.021-2.474 0.238-0.815 0.693-1.551 1.366-2.209v0c0.688-0.672 1.543-1.071 2.567-1.198 1.019-0.131 2.021-0.029 3.006 0.306 0.985 0.325 1.764 0.781 2.338 1.367zM53.632 231.842c-0.287-0.293-0.646-0.469-1.078-0.526-0.432-0.057-0.887 0.006-1.364 0.192-0.478 0.185-0.923 0.479-1.336 0.883v0c-0.5 0.489-0.884 1.01-1.152 1.563-0.263 0.548-0.371 1.096-0.326 1.643 0.051 0.543 0.29 1.033 0.718 1.47v0c0.287 0.293 0.646 0.469 1.078 0.526 0.427 0.062 0.88 0.001 1.357-0.184 0.478-0.185 0.923-0.479 1.337-0.883v0c0.505-0.493 0.891-1.017 1.159-1.57 0.268-0.553 0.379-1.099 0.332-1.637-0.051-0.543-0.292-1.035-0.725-1.477z" fill="#ffffff" data-fill-palette-color="primary"></path><path d="M67.582 243.511l-1.558 0.046-4.983 6.021-1.002-0.829-0.525-8.381-2.855 3.449 1.145 1.812-1.011 0.446-3.084-2.553 0.559-0.676 1.543-0.045 3.845-4.646-0.571-1.507 1.01-0.446 1.818 1.504 0.524 8.145 2.74-3.31-1.144-1.797 1.011-0.446 3.084 2.553z" fill="#ffffff" data-fill-palette-color="primary"></path><path d="M77.509 250.229l-1.545 0.2-4.365 6.483-1.079-0.727-1.349-8.288-2.501 3.714 1.318 1.69-0.962 0.544-3.321-2.237 0.49-0.727 1.531-0.197 3.368-5.003-0.717-1.443 0.962-0.544 1.957 1.318 1.325 8.053 2.399-3.564-1.315-1.676 0.962-0.543 3.321 2.236z" fill="#ffffff" data-fill-palette-color="primary"></path><path d="M82.286 263.211l-0.796-0.688-7.061-3.861 0.421-0.77 1.458-0.249 3.14-5.742-1.046-1.009 0.908-0.63 6.733 3.683 1 0.294-1.601 2.928-0.926-0.092-0.264-2.777-2.371-1.296-1.437 2.627 1.053 0.576 1.402-0.693 0.77 0.421-1.689 3.088-1.104-0.041 0.024-1.768-1.017-0.556-1.539 2.813 2.274 1.244 2.804-1.386 0.582 0.743z" fill="#ffffff" data-fill-palette-color="primary"></path><path d="M94.193 257.375c0.469 0.204 0.989 0.499 1.561 0.888 0.568 0.379 0.969 0.696 1.203 0.951v0l-1.102 2.534-1.452-0.631c-0.044-0.657-0.201-1.191-0.47-1.6-0.266-0.416-0.618-0.719-1.056-0.91v0c-0.37-0.161-0.76-0.183-1.169-0.068-0.415 0.113-0.806 0.346-1.173 0.7-0.366 0.354-0.665 0.796-0.895 1.326v0c-0.257 0.592-0.402 1.178-0.434 1.758-0.036 0.571 0.067 1.085 0.309 1.541 0.241 0.457 0.636 0.804 1.185 1.043v0c0.715 0.311 1.864 0.433 3.448 0.366v0l0.156 1.057-2.788 0.724c-0.409-0.053-0.784-0.135-1.125-0.247-0.346-0.114-0.711-0.254-1.093-0.42v0c-0.888-0.386-1.587-0.92-2.096-1.603-0.509-0.683-0.806-1.443-0.89-2.279-0.088-0.844 0.056-1.698 0.431-2.561v0c0.383-0.882 1.022-1.575 1.916-2.081 0.888-0.508 1.842-0.798 2.862-0.868 1.029-0.073 1.919 0.053 2.672 0.38z" fill="#ffffff" data-fill-palette-color="primary"></path><path d="M108.138 262.353l-1.114 3.403-0.931 0.087-0.909-2.992-0.882-0.289-2.246 6.862 1.248 0.759-0.777 0.785-4.515-1.478 0.273-0.833 1.398-0.509 2.099-6.411-0.853-0.28-2.493 1.879-0.709-0.624 1.114-3.402 0.899 0.527 7.361 2.41z" fill="#ffffff" data-fill-palette-color="primary"></path><path d="M116.176 274.643l-0.953-0.446-7.844-1.799 0.196-0.855 1.336-0.635 1.463-6.38-1.281-0.686 0.702-0.853 7.481 1.715 1.042 0.011-0.746 3.254-0.917 0.162-1.007-2.6-2.634-0.604-0.67 2.919 1.17 0.268 1.161-1.047 0.855 0.196-0.787 3.43-1.073 0.261-0.457-1.708-1.13-0.26-0.717 3.126 2.526 0.579 2.322-2.095 0.762 0.558z" fill="#ffffff" data-fill-palette-color="primary"></path><path d="M125.646 265.829c0.96 0.125 1.783 0.44 2.471 0.943 0.687 0.503 1.187 1.141 1.499 1.914 0.32 0.767 0.421 1.604 0.303 2.511v0c-0.122 0.933-0.541 1.753-1.257 2.46-0.71 0.714-1.545 1.242-2.506 1.585-0.967 0.342-1.857 0.459-2.67 0.353v0c-0.36-0.047-0.724-0.115-1.092-0.204v0c-0.581-0.117-1.039-0.197-1.372-0.24v0l-2.17-0.283 0.114-0.87 1.269-0.76 0.843-6.46-1.337-0.591 0.618-0.916 1.91 0.249c0.74 0.097 1.473 0.165 2.201 0.206v0c0.531 0.035 0.923 0.07 1.176 0.103zM123.992 274.369c0.467 0.061 0.912-0.027 1.336-0.263 0.424-0.236 0.782-0.589 1.074-1.059 0.293-0.477 0.48-1.026 0.561-1.646v0c0.097-0.74 0.075-1.431-0.065-2.073-0.134-0.634-0.401-1.164-0.799-1.589-0.4-0.418-0.926-0.67-1.58-0.756v0c-0.267-0.035-0.529 0.002-0.787 0.111v0l-0.904 6.92c0.336 0.179 0.724 0.298 1.164 0.355z" fill="#ffffff" data-fill-palette-color="primary"></path><path d="M135.536 276.87l-3.038 2.85-0.915-0.799c0.365-0.39 0.647-0.735 0.846-1.033 0.191-0.292 0.333-0.601 0.425-0.926v0l-1.087-0.788 0.049-0.876 2.921-0.937z" fill="#ffffff" data-fill-palette-color="primary"></path><path d="M147.546 274.531c-0.01-0.242-0.114-0.47-0.311-0.683-0.204-0.213-0.448-0.408-0.732-0.585-0.29-0.183-0.69-0.405-1.199-0.666v0c-0.62-0.33-1.12-0.619-1.5-0.865-0.387-0.239-0.719-0.528-0.996-0.866-0.277-0.331-0.424-0.709-0.442-1.132v0c-0.017-0.41 0.162-0.861 0.538-1.355 0.383-0.487 0.857-0.904 1.421-1.251 0.564-0.354 1.087-0.541 1.571-0.562v0c0.584-0.025 1.269 0.01 2.053 0.105 0.778 0.088 1.351 0.195 1.72 0.321v0l0.122 2.891-1.571 0.067c-0.337-0.652-0.705-1.154-1.104-1.508-0.399-0.36-0.803-0.531-1.213-0.513v0c-0.249 0.011-0.44 0.096-0.574 0.256-0.134 0.167-0.196 0.372-0.186 0.614v0c0.011 0.269 0.119 0.513 0.324 0.733 0.205 0.227 0.459 0.431 0.762 0.614 0.297 0.183 0.704 0.408 1.22 0.674v0c0.605 0.311 1.098 0.586 1.479 0.826 0.373 0.233 0.695 0.512 0.964 0.837 0.27 0.325 0.413 0.696 0.431 1.112v0c0.017 0.41-0.175 0.859-0.579 1.347-0.403 0.495-0.903 0.916-1.501 1.265-0.591 0.355-1.138 0.543-1.641 0.564v0c-0.611 0.026-1.339-0.007-2.185-0.099-0.845-0.085-1.455-0.191-1.83-0.316v0l-0.123-2.891 1.582-0.067c0.358 0.658 0.763 1.162 1.215 1.512 0.452 0.351 0.9 0.517 1.343 0.499v0c0.296-0.013 0.527-0.106 0.695-0.282 0.175-0.169 0.257-0.368 0.247-0.596z" fill="#ffffff" data-fill-palette-color="primary"></path><path d="M161.132 265.027l0.456 3.55-0.802 0.48-2.108-2.312-0.92 0.119 0.921 7.161 1.453 0.149-0.364 1.043-4.711 0.606-0.112-0.87 1.043-1.06-0.86-6.691-0.891 0.114-1.443 2.769-0.908-0.26-0.457-3.551 1.039 0.09 7.682-0.987z" fill="#ffffff" data-fill-palette-color="primary"></path><path d="M174.227 271.26l-0.269 1.072-4.992 1.104-0.19-0.856 1.262-1.064-0.946-1.382-3.525 0.78-0.22 1.34 1.889 0.553-0.269 1.072-4.027 0.891-0.19-0.857 1.175-1.365 1.314-7.831 2.443-1.191 5.168 7.44zM168.365 269.087l-2.025-2.94-0.585 3.517z" fill="#ffffff" data-fill-palette-color="primary"></path><path d="M179.664 266.447l0.791 2.51 1.459-0.1-0.174 1.091-4.415 1.391-0.264-0.837 0.843-1.217-0.394-1.25-4.817-3.98-0.955-0.111-0.067-1.016 4.29-1.352 0.264 0.837-0.575 0.826 2.905 2.373 1.096-3.232-1.905-0.341 0.174-1.091 3.934-1.24 0.264 0.837-1.013 1.482z" fill="#ffffff" data-fill-palette-color="primary"></path><path d="M193.781 259.902c0.336-0.155 0.538-0.414 0.607-0.779 0.069-0.365-0.009-0.791-0.234-1.28v0c-0.242-0.525-0.564-0.895-0.966-1.109-0.405-0.221-0.852-0.218-1.34 0.006v0c-0.293 0.135-0.526 0.346-0.697 0.632v0l2.859 6.211 2.252-0.56-0.036 1.105-5.093 2.345-0.367-0.797 0.67-1.319-2.725-5.917-1.446 0.211 0.035-1.105 2.199-1.012c0.629-0.29 1.238-0.599 1.826-0.93v0c0.438-0.239 0.761-0.406 0.968-0.501v0c0.617-0.284 1.214-0.418 1.791-0.403 0.583 0.013 1.1 0.163 1.551 0.452 0.448 0.282 0.786 0.671 1.014 1.165v0c0.247 0.537 0.269 1.146 0.063 1.825-0.211 0.682-0.581 1.311-1.107 1.887-0.53 0.57-1.105 0.983-1.728 1.239v0l-0.594-0.06 0.036-1.104 0.458-0.211z" fill="#ffffff" data-fill-palette-color="primary"></path><path d="M209.949 255.534l0.066 1.103-2.533 1.461-3.979-2.558-0.601 0.008-0.05-0.833 0.437-0.252c0.32-0.185 0.506-0.447 0.559-0.787 0.055-0.335-0.04-0.714-0.285-1.14v0c-0.265-0.46-0.6-0.764-1.004-0.911-0.4-0.142-0.833-0.078-1.299 0.19v0c-0.28 0.161-0.492 0.392-0.636 0.693v0l3.448 5.975 1.418-0.388 0.066 1.103-4.114 2.374-0.439-0.76 0.495-1.461-3.225-5.591-1.396 0.386-0.066-1.103 2.097-1.209c0.6-0.346 1.177-0.71 1.733-1.093v0c0.414-0.278 0.72-0.474 0.918-0.588v0c0.588-0.339 1.164-0.539 1.726-0.6 0.568-0.064 1.077 0.003 1.525 0.202 0.445 0.193 0.792 0.505 1.041 0.936v0c0.279 0.483 0.325 1.054 0.139 1.713-0.183 0.665-0.525 1.296-1.025 1.896v0l1.098-0.296 2.597 1.656z" fill="#ffffff" data-fill-palette-color="primary"></path><path d="M211.142 243.733c0.811-0.577 1.646-0.911 2.504-1.003 0.861-0.101 1.672 0.031 2.436 0.395 0.772 0.366 1.429 0.93 1.971 1.692v0c0.561 0.789 0.823 1.696 0.785 2.721-0.028 1.027-0.284 2.001-0.767 2.922-0.474 0.923-1.047 1.624-1.721 2.104v0c-0.805 0.573-1.635 0.908-2.49 1.005-0.855 0.097-1.669-0.038-2.441-0.404-0.768-0.361-1.426-0.925-1.972-1.691v0c-0.557-0.783-0.819-1.69-0.785-2.721 0.028-1.027 0.284-2.001 0.767-2.923 0.474-0.923 1.045-1.622 1.713-2.097zM211.517 245.495c-0.334 0.238-0.563 0.566-0.686 0.984-0.123 0.418-0.131 0.877-0.022 1.377 0.109 0.5 0.33 0.986 0.665 1.457v0c0.405 0.57 0.861 1.03 1.366 1.38 0.501 0.345 1.026 0.537 1.574 0.576 0.544 0.034 1.065-0.127 1.563-0.482v0c0.334-0.238 0.563-0.566 0.686-0.983 0.127-0.412 0.137-0.869 0.029-1.369-0.109-0.5-0.33-0.986-0.666-1.457v0c-0.409-0.575-0.867-1.038-1.372-1.388-0.505-0.35-1.027-0.544-1.565-0.582-0.544-0.034-1.068 0.129-1.572 0.487z" fill="#ffffff" data-fill-palette-color="primary"></path><path d="M223.779 233.401l2.359 2.693-0.398 0.846-3.039-0.744-0.697 0.611 4.758 5.431 1.289-0.686 0.279 1.069-3.573 3.13-0.578-0.66 0.276-1.461-4.446-5.075-0.675 0.591 0.345 3.103-0.898 0.291-2.359-2.693 0.912-0.504 5.825-5.104z" fill="#ffffff" data-fill-palette-color="primary"></path><path d="M238.45 232.751l-0.87 0.593-5.546 5.831-0.636-0.605 0.135-1.473-4.743-4.51-1.243 0.752-0.376-1.04 5.289-5.56 0.541-0.891 2.419 2.3-0.328 0.871-2.75-0.459-1.863 1.959 2.17 2.064 0.827-0.87-0.309-1.533 0.605-0.635 2.55 2.425-0.323 1.057-1.703-0.478-0.799 0.84 2.324 2.21 1.786-1.878-0.619-3.066 0.868-0.371z" fill="#ffffff" data-fill-palette-color="primary"></path><path d="M235.869 219.744c0.317-0.401 0.737-0.827 1.258-1.28 0.512-0.452 0.922-0.758 1.229-0.918v0l2.166 1.715-0.983 1.241c-0.646-0.126-1.202-0.112-1.668 0.043-0.471 0.15-0.854 0.413-1.15 0.787v0c-0.25 0.316-0.372 0.687-0.366 1.113 0.002 0.43 0.127 0.868 0.375 1.313 0.248 0.445 0.599 0.847 1.052 1.206v0c0.506 0.401 1.035 0.691 1.587 0.87 0.543 0.181 1.066 0.214 1.569 0.098 0.503-0.116 0.941-0.408 1.312-0.877v0c0.484-0.611 0.897-1.691 1.239-3.239v0l1.063 0.121-0.017 2.881c-0.157 0.382-0.332 0.723-0.528 1.023-0.199 0.305-0.428 0.622-0.686 0.948v0c-0.601 0.759-1.297 1.297-2.088 1.614-0.791 0.317-1.601 0.409-2.431 0.276-0.839-0.132-1.627-0.491-2.364-1.075v0c-0.754-0.597-1.26-1.392-1.52-2.387-0.263-0.989-0.298-1.985-0.103-2.988 0.193-1.013 0.545-1.841 1.054-2.485z" fill="#ffffff" data-fill-palette-color="primary"></path><path d="M244.264 207.546l3.002 1.951-0.155 0.922-3.126 0.109-0.505 0.778 6.054 3.935 1.054-1.01 0.559 0.952-2.588 3.983-0.736-0.478-0.132-1.481-5.657-3.677-0.489 0.753 1.175 2.892-0.785 0.524-3.002-1.951 0.741-0.733 4.221-6.494z" fill="#ffffff" data-fill-palette-color="primary"></path><path d="M258.209 202.939l-0.676 0.806-3.757 7.117-0.776-0.409-0.27-1.454-5.788-3.055-0.993 1.061-0.644-0.898 3.582-6.787 0.28-1.005 2.952 1.558-0.079 0.928-2.772 0.304-1.262 2.39 2.649 1.398 0.56-1.061-0.714-1.391 0.41-0.776 3.113 1.642-0.025 1.105-1.768 0.002-0.541 1.025 2.836 1.497 1.209-2.292-1.427-2.783 0.735-0.593z" fill="#ffffff" data-fill-palette-color="primary"></path><path d="M252.129 191.52c0.368-0.895 0.884-1.61 1.547-2.145 0.663-0.534 1.408-0.853 2.236-0.956 0.824-0.112 1.659 0.006 2.504 0.354v0c0.871 0.358 1.555 0.974 2.053 1.847 0.507 0.87 0.803 1.813 0.887 2.829 0.081 1.022-0.034 1.912-0.346 2.671v0c-0.138 0.336-0.297 0.67-0.478 1.003v0c-0.262 0.532-0.457 0.953-0.585 1.264v0l-0.832 2.024-0.812-0.333-0.407-1.422-6.026-2.478-0.915 1.14-0.726-0.833 0.732-1.782c0.284-0.69 0.539-1.381 0.766-2.073v0c0.171-0.504 0.305-0.874 0.402-1.11zM259.956 195.316c0.179-0.435 0.209-0.888 0.09-1.359-0.119-0.471-0.368-0.907-0.748-1.31-0.386-0.406-0.868-0.727-1.446-0.966v0c-0.69-0.284-1.363-0.441-2.02-0.47-0.648-0.034-1.228 0.087-1.741 0.363-0.507 0.279-0.886 0.722-1.137 1.332v0c-0.102 0.249-0.134 0.512-0.095 0.789v0l6.454 2.654c0.26-0.278 0.474-0.623 0.643-1.033z" fill="#ffffff" data-fill-palette-color="primary"></path><path d="M261.905 185.761c0.128-0.39 0.356-0.672 0.683-0.847 0.327-0.175 0.672-0.203 1.036-0.084v0c0.249 0.082 0.452 0.251 0.608 0.509 0.162 0.259 0.262 0.547 0.299 0.863 0.044 0.319 0.023 0.606-0.06 0.861v0c-0.126 0.383-0.354 0.666-0.683 0.847-0.327 0.175-0.666 0.205-1.017 0.09v0c-0.249-0.082-0.455-0.253-0.617-0.511-0.165-0.252-0.269-0.538-0.313-0.857-0.044-0.319-0.022-0.609 0.064-0.871z" fill="#ffffff" data-fill-palette-color="primary"></path><path d="M10.327 145.622c0-1.817 1.473-3.289 3.289-3.289 1.817 0 3.289 1.473 3.289 3.289 0 1.817-1.473 3.289-3.289 3.289-1.817 0-3.289-1.473-3.289-3.289z" fill="#ffffff" data-fill-palette-color="primary"></path><path d="M264.209 145.622c0-1.817 1.473-3.289 3.289-3.289 1.817 0 3.289 1.473 3.289 3.289 0 1.817-1.473 3.289-3.289 3.289-1.817 0-3.289-1.473-3.289-3.289z" fill="#ffffff" data-fill-palette-color="primary"></path></g></svg></g></svg></g></svg></g></svg></g><defs></defs></svg><rect width="279.72" height="279.72" fill="none" stroke="none" visibility="hidden"></rect></g></svg></g></svg>
